<svg width="137" height="137" viewBox="0 0 137 137" fill="none" xmlns="http://www.w3.org/2000/svg">
<rect width="136.32" height="136.32" rx="9.35607" fill="#F7F2F2"/>
<path d="M29.1547 49.8932C33.867 49.8932 37.6871 53.7098 37.6871 58.4177V114.435C37.6871 119.143 33.867 122.96 29.1547 122.96H21.8413C17.129 122.96 13.3089 119.143 13.3088 114.435V58.4177C13.3089 53.7098 17.129 49.8932 21.8413 49.8932H29.1547Z" fill="#202222"/>
<path d="M29.1547 13.3601C33.867 13.3601 37.6871 17.1767 37.6871 21.8846V29.1912C37.6871 33.8991 33.867 37.7156 29.1547 37.7156H21.8413C17.129 37.7156 13.3089 33.8991 13.3088 29.1912V21.8846C13.3088 17.1767 17.129 13.3601 21.8413 13.3601H29.1547Z" fill="#202222"/>
<path d="M114.479 98.6043C119.191 98.6043 123.011 102.421 123.011 107.129V114.435C123.011 119.143 119.191 122.96 114.479 122.96H58.4086C53.6964 122.96 49.8763 119.143 49.8762 114.435V107.129C49.8762 102.421 53.6963 98.6043 58.4086 98.6043H114.479Z" fill="#D13D3D"/>
<path fill-rule="evenodd" clip-rule="evenodd" d="M114.479 13.3601C119.191 13.3602 123.011 17.1767 123.011 21.8846V77.9022C123.011 82.61 119.191 86.4262 114.479 86.4263H58.4086C53.6964 86.4263 49.8763 82.61 49.8762 77.9022V21.8846C49.8762 17.1767 53.6963 13.3601 58.4086 13.3601H114.479ZM82.787 37.7156C78.0747 37.7156 74.2545 41.5322 74.2545 46.2401V53.5467C74.2546 58.2546 78.0747 62.0711 82.787 62.0711H90.1004C94.8126 62.0711 98.6328 58.2545 98.6328 53.5467V46.2401C98.6328 41.5322 94.8127 37.7157 90.1004 37.7156H82.787Z" fill="#D13D3D"/>
</svg>
