<svg width="366" height="111" viewBox="0 0 366 111" fill="none" xmlns="http://www.w3.org/2000/svg">
<path d="M308.385 0.682861C313.097 0.682892 316.917 4.49943 316.917 9.20731V43.3048H341.296V9.20731C341.296 4.49946 345.115 0.68294 349.828 0.682861H357.141C361.853 0.682861 365.674 4.49941 365.674 9.20731V101.758C365.674 106.466 361.853 110.283 357.141 110.283H349.828C345.115 110.282 341.296 106.466 341.296 101.758V67.6603H316.917V101.758C316.917 106.466 313.097 110.282 308.385 110.283H301.071C296.359 110.283 292.539 106.466 292.539 101.758V9.20731C292.539 4.49941 296.359 0.682861 301.071 0.682861H308.385Z" fill="#202222"/>
<path d="M101.17 37.216C105.882 37.216 109.702 41.0325 109.702 45.7404V101.758C109.702 106.466 105.882 110.283 101.17 110.283H93.8563C89.144 110.283 85.3239 106.466 85.3238 101.758V45.7404C85.3239 41.0325 89.144 37.216 93.8563 37.216H101.17Z" fill="#202222"/>
<path d="M101.17 0.682861C105.882 0.682861 109.702 4.49941 109.702 9.20731V16.5139C109.702 21.2218 105.882 25.0384 101.17 25.0384H93.8563C89.144 25.0384 85.3239 21.2218 85.3238 16.5139V9.20731C85.3238 4.49942 89.144 0.682877 93.8563 0.682861H101.17Z" fill="#202222"/>
<path fill-rule="evenodd" clip-rule="evenodd" d="M40.8337 0.682861C59.3388 0.682929 73.1348 16.3612 73.1349 34.1714C73.1349 42.0946 70.4043 49.5959 65.7436 55.4827C70.4042 61.3694 73.1349 68.8705 73.1349 76.7936C73.1349 94.4648 59.5535 110.037 41.2665 110.28L40.8337 110.283H8.53243L8.31216 110.28C7.9552 110.271 7.60377 110.239 7.259 110.188C6.95729 110.143 6.66077 110.082 6.37026 110.006C5.58874 109.802 4.85117 109.49 4.17388 109.087C3.91606 108.934 3.66655 108.768 3.42721 108.589C3.0716 108.323 2.73784 108.03 2.42816 107.713C2.26109 107.542 2.10086 107.365 1.94853 107.18C1.78037 106.977 1.62171 106.765 1.47275 106.546C1.42913 106.482 1.38618 106.418 1.34429 106.352C1.26287 106.226 1.18481 106.096 1.11006 105.965C1.07209 105.898 1.03525 105.831 0.999051 105.763C0.852712 105.489 0.720795 105.206 0.604597 104.915C0.51618 104.694 0.437141 104.467 0.367226 104.237C0.128852 103.453 8.85826e-06 102.62 0 101.758V9.20731C6.17944e-07 4.49941 3.82012 0.682861 8.53243 0.682861H40.8337ZM24.3783 85.927H40.8337C44.5436 85.9269 48.7566 82.5227 48.7566 76.7936C48.7566 71.1541 44.6742 67.7672 41.0079 67.6627L40.8337 67.6603H24.3783V85.927ZM40.8337 25.0384H24.3783V43.3048H40.8337C44.5436 43.3047 48.7566 39.9005 48.7566 34.1714C48.7565 28.4424 44.5436 25.0385 40.8337 25.0384Z" fill="#202222"/>
<path d="M268.161 0.682861C274.892 0.682862 280.35 6.13494 280.35 12.8604C280.35 15.1235 279.731 17.2419 278.655 19.0574L240.408 85.927H268.161C274.893 85.927 280.35 91.3791 280.35 98.1046C280.35 104.83 274.893 110.283 268.161 110.283H219.404C212.673 110.283 207.215 104.83 207.215 98.1046C207.215 95.855 207.826 93.7481 208.891 91.9398L247.156 25.0384H219.404C212.673 25.0384 207.215 19.586 207.215 12.8604C207.215 6.13493 212.673 0.68286 219.404 0.682861H268.161Z" fill="#202222"/>
<path d="M186.494 85.927C191.206 85.9271 195.026 89.7436 195.026 94.4515V101.758C195.026 106.466 191.206 110.282 186.494 110.283H130.424C125.711 110.283 121.891 106.466 121.891 101.758V94.4515C121.891 89.7436 125.711 85.927 130.424 85.927H186.494Z" fill="#D13D3D"/>
<path fill-rule="evenodd" clip-rule="evenodd" d="M186.494 0.682861C191.206 0.682955 195.026 4.49947 195.026 9.20731V65.225C195.026 69.9327 191.206 73.749 186.494 73.7491H130.424C125.711 73.7491 121.891 69.9328 121.891 65.225V9.20731C121.891 4.49942 125.711 0.682872 130.424 0.682861H186.494ZM154.802 25.0384C150.09 25.0384 146.27 28.8549 146.27 33.5628V40.8695C146.27 45.5773 150.09 49.3939 154.802 49.3939H162.115C166.828 49.3938 170.648 45.5773 170.648 40.8695V33.5628C170.648 28.855 166.828 25.0384 162.115 25.0384H154.802Z" fill="#D13D3D"/>
</svg>
