<svg xmlns="http://www.w3.org/2000/svg" width="178" height="178" viewBox="0 0 178 178">
  <g id="Groupe_29" data-name="Groupe 29" transform="translate(4 4)">
    <path id="Ligne_4" data-name="Ligne 4" d="M170,4H140a4,4,0,0,1-4-4,4,4,0,0,1,4-4h30a4,4,0,0,1,4,4A4,4,0,0,1,170,4ZM100,4H70a4,4,0,0,1-4-4,4,4,0,0,1,4-4h30a4,4,0,0,1,4,4A4,4,0,0,1,100,4ZM30,4H0A4,4,0,0,1-4,0,4,4,0,0,1,0-4H30a4,4,0,0,1,4,4A4,4,0,0,1,30,4Z" fill="#808080"/>
    <path id="Ligne_3" data-name="Ligne 3" d="M170,4H140a4,4,0,0,1-4-4,4,4,0,0,1,4-4h30a4,4,0,0,1,4,4A4,4,0,0,1,170,4ZM100,4H70a4,4,0,0,1-4-4,4,4,0,0,1,4-4h30a4,4,0,0,1,4,4A4,4,0,0,1,100,4ZM30,4H0A4,4,0,0,1-4,0,4,4,0,0,1,0-4H30a4,4,0,0,1,4,4A4,4,0,0,1,30,4Z" transform="rotate(90)" fill="#808080"/>
  </g>
</svg>
