<svg width="43" height="41" viewBox="0 0 43 41" fill="none" xmlns="http://www.w3.org/2000/svg">
<path d="M20.3584 0C12.177 0 5.13715 4.58455 1.67432 11.2564C5.1752 6.26182 11.0734 2.98182 17.6947 2.98182C28.4256 2.98182 37.1017 11.48 37.1017 21.9909C37.1017 32.0545 29.1106 40.2918 18.9885 40.9627C19.4451 41 19.9018 41 20.3584 41C31.9265 41 41.2876 31.8309 41.2876 20.5C41.2876 9.16909 31.9265 0 20.3584 0Z" fill="#121212"/>
<path d="M29.8717 15.8408C29.8717 12.859 27.3983 10.4363 24.354 10.4363C21.6142 10.4363 19.331 12.4117 18.9124 14.9836C18.608 14.909 18.2655 14.909 17.885 14.909C12.9381 14.909 8.9425 18.8226 8.9425 23.6681C8.9425 28.5135 12.9761 32.4272 17.885 32.4272C22.7938 32.4272 26.8275 28.5135 26.8275 23.6681C26.8275 22.699 26.6753 21.7672 26.3708 20.8726C28.4257 20.0899 29.8717 18.1517 29.8717 15.8408ZM25.5717 19.1954C25.1912 19.3445 24.7726 19.3817 24.354 19.3817C22.3753 19.3817 20.739 17.8163 20.739 15.8408C20.739 15.6917 20.739 15.5426 20.777 15.3936C21.0053 13.6417 22.5275 12.2999 24.354 12.2999C26.3328 12.2999 27.9691 13.8654 27.9691 15.8408C27.9691 17.369 26.9797 18.7108 25.5717 19.1954Z" fill="#121212"/>
</svg>
