<svg width="84" height="84" viewBox="0 0 84 84" fill="none" xmlns="http://www.w3.org/2000/svg">
<rect width="84" height="84" rx="14" fill="#F7F2F2"/>
<path d="M40.3292 10.9487C28.1522 10.9487 17.6743 17.8929 12.5204 27.9987C17.731 20.4335 26.5097 15.4653 36.3646 15.4653C52.3363 15.4653 65.2496 28.3374 65.2496 44.2582C65.2496 59.5015 53.3558 71.9785 38.2903 72.9947C38.9699 73.0512 39.6496 73.0512 40.3292 73.0512C57.5469 73.0512 71.4796 59.1628 71.4796 41.9999C71.4796 24.8371 57.5469 10.9487 40.3292 10.9487Z" fill="#202222"/>
<path d="M54.4885 34.9428C54.4885 30.4263 50.8071 26.7566 46.2761 26.7566C42.1982 26.7566 38.8 29.7488 38.177 33.6443C37.7239 33.5314 37.2142 33.5314 36.6478 33.5314C29.285 33.5314 23.3381 39.4594 23.3381 46.7987C23.3381 54.1381 29.3416 60.0661 36.6478 60.0661C43.954 60.0661 49.9575 54.1381 49.9575 46.7987C49.9575 45.3309 49.731 43.9194 49.2779 42.5645C52.3363 41.3789 54.4885 38.4431 54.4885 34.9428ZM48.0885 40.0239C47.5221 40.2498 46.8991 40.3062 46.2761 40.3062C43.331 40.3062 40.8956 37.935 40.8956 34.9428C40.8956 34.717 40.8956 34.4912 40.9522 34.2653C41.292 31.6119 43.5575 29.5794 46.2761 29.5794C49.2212 29.5794 51.6566 31.9506 51.6566 34.9428C51.6566 37.2575 50.1841 39.29 48.0885 40.0239Z" fill="#202222"/>
</svg>
