<svg width="137" height="137" viewBox="0 0 137 137" fill="none" xmlns="http://www.w3.org/2000/svg">
<rect width="136.32" height="136.32" rx="14" fill="#F7F2F2"/>
<path d="M29.1545 49.8935C33.8668 49.8935 37.6869 53.71 37.6869 58.4179V114.436C37.6869 119.143 33.8667 122.96 29.1545 122.96H21.841C17.1287 122.96 13.3086 119.143 13.3086 114.436V58.4179C13.3086 53.71 17.1287 49.8935 21.841 49.8935H29.1545Z" fill="#202222"/>
<path d="M29.1545 13.3604C33.8668 13.3604 37.6869 17.1769 37.6869 21.8848V29.1914C37.6869 33.8993 33.8668 37.7159 29.1545 37.7159H21.841C17.1287 37.7159 13.3086 33.8993 13.3086 29.1914V21.8848C13.3086 17.1769 17.1287 13.3604 21.841 13.3604H29.1545Z" fill="#202222"/>
<path d="M114.478 98.6045C119.191 98.6046 123.011 102.421 123.011 107.129V114.436C123.011 119.143 119.191 122.96 114.478 122.96H58.4084C53.6961 122.96 49.876 119.143 49.876 114.436V107.129C49.876 102.421 53.6961 98.6045 58.4084 98.6045H114.478Z" fill="#D13D3D"/>
<path fill-rule="evenodd" clip-rule="evenodd" d="M114.478 13.3604C119.191 13.3604 123.011 17.177 123.011 21.8848V77.9025C123.011 82.6102 119.191 86.4265 114.478 86.4266H58.4084C53.6962 86.4266 49.8761 82.6103 49.876 77.9025V21.8848C49.876 17.1769 53.6961 13.3604 58.4084 13.3604H114.478ZM82.7867 37.7159C78.0744 37.7159 74.2543 41.5324 74.2543 46.2403V53.5469C74.2543 58.2548 78.0744 62.0714 82.7867 62.0714H90.1002C94.8124 62.0713 98.6325 58.2548 98.6326 53.5469V46.2403C98.6326 41.5325 94.8124 37.7159 90.1002 37.7159H82.7867Z" fill="#D13D3D"/>
</svg>
