<svg width="59" height="64" viewBox="0 0 59 64" fill="none" xmlns="http://www.w3.org/2000/svg">
<path d="M27.8088 0.94873C15.6319 0.94873 5.15398 7.89291 0 17.9987C5.21062 10.4335 13.9894 5.46527 23.8442 5.46527C39.8159 5.46527 52.7292 18.3374 52.7292 34.2582C52.7292 49.5015 40.8354 61.9785 25.7699 62.9947C26.4496 63.0512 27.1292 63.0512 27.8088 63.0512C45.0265 63.0512 58.9593 49.1628 58.9593 31.9999C58.9593 14.8371 45.0265 0.94873 27.8088 0.94873Z" fill="#202222"/>
<path d="M41.9681 24.9428C41.9681 20.4263 38.2867 16.7566 33.7558 16.7566C29.6779 16.7566 26.2797 19.7488 25.6566 23.6443C25.2035 23.5314 24.6938 23.5314 24.1274 23.5314C16.7646 23.5314 10.8177 29.4594 10.8177 36.7987C10.8177 44.1381 16.8212 50.0661 24.1274 50.0661C31.4336 50.0661 37.4372 44.1381 37.4372 36.7987C37.4372 35.3309 37.2106 33.9194 36.7575 32.5645C39.8159 31.3789 41.9681 28.4431 41.9681 24.9428ZM35.5681 30.0239C35.0018 30.2498 34.3788 30.3062 33.7558 30.3062C30.8106 30.3062 28.3752 27.935 28.3752 24.9428C28.3752 24.717 28.3752 24.4912 28.4319 24.2653C28.7717 21.6119 31.0372 19.5794 33.7558 19.5794C36.7009 19.5794 39.1363 21.9506 39.1363 24.9428C39.1363 27.2575 37.6637 29.29 35.5681 30.0239Z" fill="#202222"/>
</svg>
